<svg width="776" height="517" viewBox="0 0 776 517" fill="none" xmlns="http://www.w3.org/2000/svg">
<path d="M429.868 298.715C498.623 298.715 554.36 242.978 554.36 174.223C554.36 105.468 498.623 49.7307 429.868 49.7307C361.113 49.7307 305.376 105.468 305.376 174.223C305.376 242.978 361.113 298.715 429.868 298.715Z" fill="#E7F9FF"/>
<path d="M624.844 377.437C631.416 377.437 636.744 371.905 636.744 365.08C636.744 358.255 631.416 352.722 624.844 352.722C618.272 352.722 612.944 358.255 612.944 365.08C612.944 371.905 618.272 377.437 624.844 377.437Z" fill="#E7F9FF"/>
<path d="M47.8173 309.754C44.0521 315.14 45.5347 322.677 51.1286 326.587C56.7226 330.497 64.3096 329.299 68.0747 323.913C71.8399 318.526 70.3573 310.989 64.7633 307.08C59.1694 303.17 51.5824 304.367 47.8173 309.754Z" fill="#E7F9FF"/>
<path d="M599.213 338.076C602.752 338.076 605.621 335.207 605.621 331.668C605.621 328.129 602.752 325.261 599.213 325.261C595.674 325.261 592.806 328.129 592.806 331.668C592.806 335.207 595.674 338.076 599.213 338.076Z" fill="#E7F9FF"/>
<path d="M87.6709 324.252C85.6436 327.152 86.3514 331.147 89.252 333.175C92.1526 335.202 96.1475 334.494 98.1748 331.594C100.202 328.693 99.4943 324.698 96.5938 322.671C93.6932 320.643 89.6983 321.351 87.6709 324.252Z" fill="#E7F9FF"/>
<path d="M624.844 344.484C629.9 344.484 633.998 340.18 633.998 334.872C633.998 329.564 629.9 325.261 624.844 325.261C619.789 325.261 615.69 329.564 615.69 334.872C615.69 340.18 619.789 344.484 624.844 344.484Z" fill="#E7F9FF"/>
<path d="M62.2442 345.503C59.3479 349.646 60.5271 355.471 64.878 358.512C69.2289 361.553 75.1038 360.659 78 356.515C80.8963 352.372 79.7171 346.547 75.3662 343.506C71.0154 340.465 65.1404 341.359 62.2442 345.503Z" fill="#E7F9FF"/>
<path d="M607.72 130.51C607.718 134.545 606.135 138.415 603.319 141.269C600.503 144.123 596.684 145.728 592.701 145.731H536.581C533.724 145.732 530.968 144.662 528.842 142.728C526.717 140.794 525.372 138.132 525.066 135.254C524.761 132.376 525.516 129.486 527.188 127.138C528.859 124.791 531.327 123.152 534.119 122.537C534.342 119.112 535.842 115.901 538.313 113.554C540.785 111.207 544.044 109.899 547.432 109.894C548.804 109.894 550.167 110.115 551.47 110.548C553.448 106.673 556.55 103.504 560.358 101.468C564.167 99.4323 568.499 98.6269 572.773 99.1603C577.047 99.6937 581.057 101.54 584.264 104.452C587.471 107.363 589.721 111.2 590.711 115.445C592.832 115.155 594.989 115.328 597.038 115.952C599.088 116.576 600.981 117.637 602.592 119.064C604.203 120.491 605.494 122.25 606.379 124.225C607.263 126.199 607.72 128.342 607.72 130.51Z" fill="#00C0DA"/>
<path d="M225.822 50.705C225.82 57.1986 223.24 63.4256 218.65 68.0184C214.061 72.6111 207.836 75.194 201.344 75.1998H109.875C105.219 75.2002 100.726 73.4787 97.2621 70.3665C93.7978 67.2542 91.606 62.9709 91.1082 58.34C90.6104 53.7091 91.8417 49.0576 94.5653 45.2799C97.289 41.5021 101.313 38.8648 105.863 37.875C106.227 32.3643 108.67 27.1976 112.699 23.4206C116.727 19.6436 122.04 17.5384 127.561 17.531C129.797 17.5312 132.019 17.8862 134.143 18.5828C137.367 12.3469 142.422 7.24784 148.629 3.97172C154.837 0.695598 161.898 -0.600465 168.864 0.257875C175.83 1.11622 182.366 4.08778 187.593 8.77284C192.819 13.4579 196.486 19.6317 198.1 26.4637C212.982 24.4085 225.822 36.1461 225.822 50.705Z" fill="#00C0DA"/>
<path d="M82.7198 248.147C82.718 252.136 81.1353 255.961 78.3194 258.783C75.5034 261.604 71.6844 263.191 67.7012 263.194H11.5808C8.72384 263.194 5.96761 262.137 3.8421 260.225C1.71658 258.313 0.37182 255.682 0.0663899 252.837C-0.23904 249.993 0.516419 247.135 2.18751 244.815C3.85859 242.494 6.32734 240.874 9.11907 240.266C9.3424 236.881 10.8416 233.707 13.3132 231.387C15.7848 229.067 19.0442 227.774 22.4319 227.769C23.8037 227.769 25.1668 227.987 26.4704 228.415C28.448 224.584 31.5497 221.452 35.3582 219.44C39.1667 217.427 43.4993 216.631 47.7732 217.158C52.047 217.686 56.0571 219.511 59.264 222.389C62.4709 225.267 64.7208 229.059 65.7109 233.256C67.8315 232.969 69.9889 233.14 72.0382 233.757C74.0875 234.374 75.9813 235.423 77.5924 236.833C79.2034 238.244 80.4945 239.983 81.3789 241.935C82.2632 243.886 82.7204 246.004 82.7198 248.147Z" fill="#00C0DA"/>
<path d="M775.72 212.147C775.718 216.136 774.135 219.961 771.319 222.783C768.503 225.604 764.684 227.191 760.701 227.194H704.581C701.724 227.194 698.968 226.137 696.842 224.225C694.717 222.313 693.372 219.682 693.066 216.837C692.761 213.993 693.516 211.135 695.188 208.815C696.859 206.494 699.327 204.874 702.119 204.266C702.342 200.881 703.842 197.707 706.313 195.387C708.785 193.067 712.044 191.774 715.432 191.769C716.804 191.769 718.167 191.987 719.47 192.415C721.448 188.584 724.55 185.452 728.358 183.44C732.167 181.427 736.499 180.631 740.773 181.158C745.047 181.686 749.057 183.511 752.264 186.389C755.471 189.267 757.721 193.059 758.711 197.256C760.832 196.969 762.989 197.14 765.038 197.757C767.088 198.374 768.981 199.423 770.592 200.833C772.203 202.244 773.494 203.983 774.379 205.935C775.263 207.886 775.72 210.004 775.72 212.147Z" fill="#00C0DA"/>
<path d="M345.911 319.089L279.041 333.94L287.704 372.948L354.575 358.096L345.911 319.089Z" fill="#EEE738"/>
<path d="M301.331 328.989L279.041 333.94L287.704 372.948L309.994 367.997L301.331 328.989Z" fill="#006170"/>
<path d="M345.911 319.089L323.621 324.039L332.284 363.047L354.575 358.096L345.911 319.089Z" fill="#006170"/>
<path d="M345.911 319.089L279.04 333.94L261.707 308.552L350.868 288.751L345.911 319.089Z" fill="#7ABCDD"/>
<path d="M246.285 102.859C203.228 120.608 177.968 168.466 188.767 217.086C194.815 244.322 229.747 279.835 261.15 308.676L291.66 301.9C273.73 282.712 248.635 249.692 239.368 207.968C230.365 167.427 238.419 127.996 246.285 102.859Z" fill="#FF4F00"/>
<path d="M277.77 95.8667C295.537 115.31 319.525 147.626 328.529 188.166C337.78 229.821 328.968 270.444 320.916 295.403L351.425 288.627C367.652 249.134 384.282 202.243 378.233 175.007C367.435 126.387 324.292 93.7209 277.77 95.8667Z" fill="#D7012B"/>
<path d="M277.77 95.8667C272.484 96.0905 267.097 96.8483 261.733 98.0395C256.37 99.2307 251.254 100.879 246.285 102.859C238.418 127.996 230.364 167.427 239.368 207.968C248.619 249.623 273.799 282.696 291.66 301.9L320.915 295.403C329.037 270.429 337.796 229.89 328.529 188.166C319.525 147.626 295.537 115.31 277.77 95.8667Z" fill="url(#paint0_linear_203_5)"/>
<path d="M339.402 515.5H323.156C322.781 515.5 322.593 515.292 322.593 514.875V499.875H291.437C291.062 499.875 290.875 499.667 290.875 499.25V485.188L322.241 426.938C322.476 426.604 322.781 426.438 323.156 426.438H339.402C339.683 426.438 339.824 426.604 339.824 426.938L339.964 484.625H350.092C350.561 484.625 350.795 484.854 350.795 485.312V499.25C350.795 499.667 350.607 499.875 350.232 499.875H339.964V514.875C339.964 515.292 339.777 515.5 339.402 515.5ZM307.894 484.625H322.593V456.75L307.894 484.625Z" fill="#A4A4A4"/>
<path d="M389.124 516.75C383.029 516.75 377.614 515.583 372.878 513.25C368.19 510.917 364.509 507.812 361.837 503.938C359.211 500.021 357.898 495.729 357.898 491.062L358.039 450.5C358.039 445.75 359.375 441.479 362.048 437.688C364.673 433.854 368.33 430.792 373.019 428.5C377.708 426.167 383.076 425 389.124 425C395.313 425 400.705 426.146 405.3 428.438C409.895 430.729 413.505 433.812 416.131 437.688C418.803 441.521 420.14 445.792 420.14 450.5L420.28 491.062C420.28 495.688 418.967 499.958 416.342 503.875C413.669 507.792 409.989 510.917 405.3 513.25C400.658 515.583 395.266 516.75 389.124 516.75ZM402.839 491.062L402.698 450.5C402.698 447.5 401.432 445.062 398.9 443.188C396.415 441.312 393.157 440.375 389.124 440.375C384.998 440.375 381.693 441.312 379.208 443.188C376.723 445.062 375.481 447.5 375.481 450.5V491.062C375.481 494.229 376.723 496.729 379.208 498.562C381.693 500.396 384.998 501.312 389.124 501.312C393.157 501.312 396.439 500.396 398.97 498.562C401.549 496.729 402.839 494.229 402.839 491.062Z" fill="#A4A4A4"/>
<path d="M475.981 515.5H459.735C459.36 515.5 459.172 515.292 459.172 514.875V499.875H428.016C427.641 499.875 427.454 499.667 427.454 499.25V485.188L458.821 426.938C459.055 426.604 459.36 426.438 459.735 426.438H475.981C476.262 426.438 476.403 426.604 476.403 426.938L476.544 484.625H486.671C487.14 484.625 487.374 484.854 487.374 485.312V499.25C487.374 499.667 487.187 499.875 486.812 499.875H476.544V514.875C476.544 515.292 476.356 515.5 475.981 515.5ZM444.473 484.625H459.172V456.75L444.473 484.625Z" fill="#A4A4A4"/>
<rect x="384.061" y="451.5" width="11.2527" height="41" rx="5.62633" fill="#A4A4A4"/>
<path d="M337.527 515.5H321.281C320.906 515.5 320.718 515.292 320.718 514.875V499.875H289.563C289.188 499.875 289 499.667 289 499.25V485.188L320.367 426.938C320.601 426.604 320.906 426.438 321.281 426.438H337.527C337.808 426.438 337.949 426.604 337.949 426.938L338.09 484.625H348.217C348.686 484.625 348.92 484.854 348.92 485.312V499.25C348.92 499.667 348.733 499.875 348.358 499.875H338.09V514.875C338.09 515.292 337.902 515.5 337.527 515.5ZM306.02 484.625H320.718V456.75L306.02 484.625Z" fill="#00526D"/>
<path d="M387.25 516.75C381.155 516.75 375.739 515.583 371.004 513.25C366.315 510.917 362.635 507.812 359.962 503.938C357.337 500.021 356.024 495.729 356.024 491.062L356.164 450.5C356.164 445.75 357.501 441.479 360.173 437.688C362.799 433.854 366.456 430.792 371.144 428.5C375.833 426.167 381.202 425 387.25 425C393.439 425 398.831 426.146 403.426 428.438C408.02 430.729 411.631 433.812 414.256 437.688C416.929 441.521 418.265 445.792 418.265 450.5L418.406 491.062C418.406 495.688 417.093 499.958 414.467 503.875C411.795 507.792 408.114 510.917 403.426 513.25C398.784 515.583 393.392 516.75 387.25 516.75ZM400.964 491.062L400.823 450.5C400.823 447.5 399.557 445.062 397.026 443.188C394.541 441.312 391.282 440.375 387.25 440.375C383.124 440.375 379.818 441.312 377.333 443.188C374.848 445.062 373.606 447.5 373.606 450.5V491.062C373.606 494.229 374.848 496.729 377.333 498.562C379.818 500.396 383.124 501.312 387.25 501.312C391.282 501.312 394.564 500.396 397.096 498.562C399.675 496.729 400.964 494.229 400.964 491.062Z" fill="#00526D"/>
<path d="M474.106 515.5H457.86C457.485 515.5 457.298 515.292 457.298 514.875V499.875H426.142C425.767 499.875 425.579 499.667 425.579 499.25V485.188L456.946 426.938C457.181 426.604 457.485 426.438 457.86 426.438H474.106C474.388 426.438 474.528 426.604 474.528 426.938L474.669 484.625H484.796C485.265 484.625 485.5 484.854 485.5 485.312V499.25C485.5 499.667 485.312 499.875 484.937 499.875H474.669V514.875C474.669 515.292 474.481 515.5 474.106 515.5ZM442.599 484.625H457.298V456.75L442.599 484.625Z" fill="#00526D"/>
<rect x="382.186" y="451.5" width="11.2527" height="41" rx="5.62633" fill="#FBB10C"/>
<path d="M524.185 317.765L495.182 306.459L488.586 323.378L517.59 334.684L524.185 317.765Z" fill="#EFD66C"/>
<path d="M504.849 310.228L495.182 306.459L488.586 323.378L498.254 327.146L504.849 310.228Z" fill="#006170"/>
<path d="M524.185 317.765L514.517 313.997L507.922 330.915L517.59 334.684L524.185 317.765Z" fill="#006170"/>
<path d="M524.185 317.765L495.182 306.459L495.059 292.49L533.73 307.565L524.185 317.765Z" fill="#7ABCDD"/>
<path d="M541.261 210.929C520.516 206.74 498.875 218.42 490.654 239.508C486.049 251.321 490.255 273.564 494.817 292.396L508.05 297.554C506.134 285.775 505.011 266.961 512.065 248.864C518.92 231.281 531.934 218.43 541.261 210.929Z" fill="#FF4F00"/>
<path d="M554.917 216.253C556.707 228.088 557.591 246.356 550.736 263.939C543.693 282.006 530.092 295.114 520.739 302.501L533.972 307.659C550.087 296.853 568.225 283.355 572.83 271.542C581.051 250.454 573.024 227.209 554.917 216.253Z" fill="#D7012B"/>
<path d="M554.917 216.253C552.864 215 550.639 213.924 548.313 213.017C545.986 212.11 543.638 211.438 541.261 210.929C531.933 218.43 518.919 231.281 512.065 248.864C505.022 266.931 506.164 285.786 508.05 297.554L520.739 302.501C530.122 295.126 543.682 282.036 550.736 263.939C557.59 246.356 556.707 228.088 554.917 216.253Z" fill="#EEE738"/>
<path d="M245.467 340.937C244.208 340.937 242.886 340.434 241.879 339.491L239.613 337.226C237.536 335.151 234.641 334.082 231.683 334.396C228.725 334.711 226.081 336.283 224.445 338.736C223.5 340.119 221.927 341 220.227 341C218.528 341 216.955 340.182 216.01 338.736C214.374 336.283 211.73 334.711 208.772 334.396C205.814 334.082 202.919 335.151 200.842 337.226L198.576 339.491C196.625 341.44 193.415 341.44 191.463 339.491C189.512 337.541 189.512 334.333 191.463 332.384L193.729 330.12C197.946 325.906 203.8 323.767 209.779 324.396C213.619 324.774 217.269 326.283 220.227 328.61C223.186 326.283 226.773 324.774 230.676 324.396C236.655 323.83 242.509 325.906 246.726 330.12L248.992 332.384C250.943 334.333 250.943 337.541 248.992 339.491C248.047 340.497 246.726 340.937 245.467 340.937ZM425.353 318.107C426.989 315.654 429.633 314.082 432.591 313.767C435.549 313.453 438.444 314.522 440.521 316.598L442.787 318.862C444.738 320.811 447.948 320.811 449.9 318.862C451.851 316.912 451.851 313.705 449.9 311.755L447.634 309.491C443.417 305.277 437.563 303.201 431.584 303.768C427.744 304.145 424.094 305.654 421.135 307.981C418.177 305.654 414.59 304.145 410.687 303.768C404.708 303.201 398.854 305.277 394.637 309.491L392.371 311.755C390.42 313.705 390.42 316.912 392.371 318.862C394.323 320.811 397.533 320.811 399.484 318.862L401.75 316.598C403.827 314.522 406.722 313.453 409.68 313.767C412.638 314.082 415.282 315.654 416.918 318.107C417.863 319.491 419.436 320.371 421.135 320.371C422.835 320.371 424.471 319.491 425.353 318.107ZM460.537 133.202C462.488 131.253 462.488 128.045 460.537 126.096L458.271 123.831C454.054 119.618 448.2 117.479 442.221 118.108C438.381 118.486 434.731 119.995 431.773 122.322C428.814 119.995 425.227 118.486 421.324 118.108C415.345 117.542 409.491 119.618 405.274 123.831L403.008 126.096C401.057 128.045 401.057 131.253 403.008 133.202C404.96 135.152 408.17 135.152 410.121 133.202L412.387 130.938C414.464 128.863 417.359 127.794 420.317 128.108C423.275 128.423 425.919 129.995 427.555 132.448C428.5 133.831 430.073 134.712 431.773 134.712C433.472 134.712 435.045 133.894 435.99 132.448C437.626 129.995 440.27 128.423 443.228 128.108C446.186 127.794 449.081 128.863 451.158 130.938L453.424 133.202C454.431 134.209 455.69 134.649 457.012 134.649C458.334 134.649 459.53 134.209 460.537 133.202Z" fill="#294549" fill-opacity="0.38"/>
<defs>
<linearGradient id="paint0_linear_203_5" x1="261.733" y1="98.0395" x2="306.288" y2="298.651" gradientUnits="userSpaceOnUse">
<stop offset="0.290297" stop-color="#EEE738"/>
<stop offset="0.96332" stop-color="#FFA200"/>
</linearGradient>
</defs>
</svg>
